<?xml version="1.0" encoding="UTF-8" standalone="no"?>
<!-- Created with Inkscape (http://www.inkscape.org/) -->

<svg
   xmlns:dc="http://purl.org/dc/elements/1.1/"
   xmlns:cc="http://creativecommons.org/ns#"
   xmlns:rdf="http://www.w3.org/1999/02/22-rdf-syntax-ns#"
   xmlns:svg="http://www.w3.org/2000/svg"
   xmlns="http://www.w3.org/2000/svg"
   version="1.1"
   width="96"
   height="136"
   id="svg2">
  <defs
     id="defs4" />
  <metadata
     id="metadata7">
    <rdf:RDF>
      <cc:Work
         rdf:about="">
        <dc:format>image/svg+xml</dc:format>
        <dc:type
           rdf:resource="http://purl.org/dc/dcmitype/StillImage" />
        <dc:title></dc:title>
      </cc:Work>
    </rdf:RDF>
  </metadata>
  <g
     transform="translate(-245.57143,-204.36218)"
     id="layer1">
    <rect
       width="51.07143"
       height="10.357142"
       x="299.64285"
       y="331.29074"
       id="rect4008"
       style="fill:#ffffff;fill-opacity:1;stroke:none" />
    <g
       transform="translate(23.571429,-1.4285714)"
       id="g4236">
      <rect
         width="52.142857"
         height="11.428572"
         x="242.85715"
         y="251.6479"
         id="rect4073"
         style="fill:#ffffff;fill-opacity:1;stroke:none" />
      <path
         d="m 254,337.79075 0,-4 -4,0 -4,0 0,-8 0,-8 -8,0 -8,0 0,-4 0,-4 -4,0 -4,0 0,-4 0,-4 4,0 4,0 0,-4 0,-4 4,0 4,0 0,-4 0,-4 4,0 4,0 0,-4 0,-4 -4,0 -4,0 0,-4 0,-4 -4,0 -4,0 0,-4 0,-4 -4,0 -4,0 0,-16 0,-16 4,0 4,0 0,-4 0,-4 4,0 4,0 0,-4 0,-4 8,0 8,0 0,-4 0,-4 20,0 20,0 0,4 0,4 4,0 4,0 0,4 0,4 4,0 4,0 0,4 0,4 4,0 4,0 0,16 0,16 -4,0 -4,0 0,4 0,4 -4,0 -4,0 0,4 0,4 -4,0 -4,0 0,4 0,4 4,0 4,0 0,4 0,4 4,0 4,0 0,4 0,4 4,0 4,0 0,4 0,4 -4,0 -4,0 0,4 0,4 -8,0 -8,0 0,8 0,8 -4,0 -4,0 0,4 0,4 -16,0 -16,0 0,-4 z m 0,-80 0,-4 -4,0 -4,0 0,4 0,4 4,0 4,0 0,-4 z m 40,0 0,-4 -4,0 -4,0 0,4 0,4 4,0 4,0 0,-4 z"
         id="path3947"
         style="fill:#e0adad" />
      <path
         d="m 254,337.79075 0,-4 -4,0 -4,0 0,-8 0,-8 -8,0 -8,0 0,-4 0,-4 -4,0 -4,0 0,-4 0,-4 4,0 4,0 0,-4 0,-4 4,0 4,0 0,-4 0,-4 4,0 4,0 0,-4 0,-4 -4,0 -4,0 0,-4 0,-4 -4,0 -4,0 0,-4 0,-4 -4,0 -4,0 0,-16 0,-16 4,0 4,0 0,-4 0,-4 4,0 4,0 0,-4 0,-4 8,0 8,0 0,-4 0,-4 20,0 20,0 0,4 0,4 4,0 4,0 0,4 0,4 4,0 4,0 0,4 0,4 4,0 4,0 0,16 0,16 -4,0 -4,0 0,4 0,4 -4,0 -4,0 0,4 0,4 -4,0 -4,0 0,4 0,4 4,0 4,0 0,4 0,4 4,0 4,0 0,4 0,4 4,0 4,0 0,4 0,4 -4,0 -4,0 0,4 0,4 -8,0 -8,0 0,8 0,8 -4,0 -4,0 0,4 0,4 -16,0 -16,0 0,-4 z m -8,-32 0,-4 -8,0 -8,0 0,4 0,4 8,0 8,0 0,-4 z m 64,0 0,-4 -8,0 -8,0 0,4 0,4 8,0 8,0 0,-4 z m -48,-32 0,-4 8,0 8,0 0,4 0,4 4,0 4,0 0,-4 0,-4 4,0 4,0 0,-4 0,-4 4,0 4,0 0,-4 0,-4 -4,0 -4,0 0,-4 0,-4 -4,0 -4,0 0,8 0,8 -4,0 -4,0 0,-8 0,-8 -8,0 -8,0 0,8 0,8 -4,0 -4,0 0,-8 0,-8 -4,0 -4,0 0,4 0,4 -4,0 -4,0 0,4 0,4 4,0 4,0 0,4 0,4 4,0 4,0 0,4 0,4 4,0 4,0 0,-4 z"
         id="path3945"
         style="fill:#c28f8f" />
      <path
         d="m 254,337.79075 0,-4 -4,0 -4,0 0,-8 0,-8 -8,0 -8,0 0,-4 0,-4 -4,0 -4,0 0,-4 0,-4 4,0 4,0 0,-4 0,-4 4,0 4,0 0,-4 0,-4 4,0 4,0 0,-4 0,-4 -4,0 -4,0 0,-4 0,-4 -4,0 -4,0 0,-4 0,-4 -4,0 -4,0 0,-16 0,-16 4,0 4,0 0,-4 0,-4 4,0 4,0 0,-4 0,-4 8,0 8,0 0,-4 0,-4 20,0 20,0 0,4 0,4 4,0 4,0 0,4 0,4 4,0 4,0 0,4 0,4 4,0 4,0 0,16 0,16 -4,0 -4,0 0,4 0,4 -4,0 -4,0 0,4 0,4 -4,0 -4,0 0,4 0,4 4,0 4,0 0,4 0,4 4,0 4,0 0,4 0,4 4,0 4,0 0,4 0,4 -4,0 -4,0 0,4 0,4 -8,0 -8,0 0,8 0,8 -4,0 -4,0 0,4 0,4 -16,0 -16,0 0,-4 z m -8,-32 0,-4 -8,0 -8,0 0,4 0,4 8,0 8,0 0,-4 z m 64,0 0,-4 -8,0 -8,0 0,4 0,4 8,0 8,0 0,-4 z m -48,-32 0,-4 8,0 8,0 0,4 0,4 8,0 8,0 0,-4 0,-4 4,0 4,0 0,-8 0,-8 -4,0 -4,0 0,-4 0,-4 -4,0 -4,0 0,8 0,8 -4,0 -4,0 0,-8 0,-8 -8,0 -8,0 0,8 0,8 -4,0 -4,0 0,-8 0,-8 -4,0 -4,0 0,4 0,4 -4,0 -4,0 0,8 0,8 4,0 4,0 0,4 0,4 8,0 8,0 0,-4 z"
         id="path3943"
         style="fill:#d78c4a" />
      <path
         d="m 254,337.79075 0,-4 -4,0 -4,0 0,-8 0,-8 -8,0 -8,0 0,-4 0,-4 -4,0 -4,0 0,-4 0,-4 4,0 4,0 0,-4 0,-4 4,0 4,0 0,-4 0,-4 4,0 4,0 0,-4 0,-4 -4,0 -4,0 0,-4 0,-4 -4,0 -4,0 0,-4 0,-4 -4,0 -4,0 0,-16 0,-16 4,0 4,0 0,-4 0,-4 4,0 4,0 0,-4 0,-4 8,0 8,0 0,-4 0,-4 20,0 20,0 0,4 0,4 4,0 4,0 0,4 0,4 4,0 4,0 0,4 0,4 4,0 4,0 0,16 0,16 -4,0 -4,0 0,4 0,4 -4,0 -4,0 0,4 0,4 -4,0 -4,0 0,4 0,4 4,0 4,0 0,4 0,4 4,0 4,0 0,4 0,4 4,0 4,0 0,4 0,4 -4,0 -4,0 0,4 0,4 -8,0 -8,0 0,8 0,8 -4,0 -4,0 0,4 0,4 -16,0 -16,0 0,-4 z m -8,-32 0,-4 -8,0 -8,0 0,4 0,4 8,0 8,0 0,-4 z m 64,0 0,-4 -8,0 -8,0 0,4 0,4 8,0 8,0 0,-4 z m -48,-32 0,-4 8,0 8,0 0,4 0,4 8,0 8,0 0,-4 0,-4 4,0 4,0 0,-4 0,-4 4,0 4,0 0,-8 0,-8 -4,0 -4,0 0,-8 0,-8 -8,0 -8,0 0,4 0,4 -4,0 -4,0 0,-4 0,-4 -4,0 -4,0 0,-4 0,-4 -4,0 -4,0 0,4 0,4 -12,0 -12,0 0,8 0,8 -4,0 -4,0 0,8 0,8 4,0 4,0 0,4 0,4 4,0 4,0 0,4 0,4 8,0 8,0 0,-4 z m -8,-16 0,-4 4,0 4,0 0,4 0,4 -4,0 -4,0 0,-4 z m 24,0 0,-4 4,0 4,0 0,4 0,4 -4,0 -4,0 0,-4 z"
         id="path3941"
         style="fill:#867777" />
      <path
         d="m 254,337.79075 0,-4 -4,0 -4,0 0,-8 0,-8 -8,0 -8,0 0,-4 0,-4 -4,0 -4,0 0,-4 0,-4 4,0 4,0 0,-4 0,-4 4,0 4,0 0,-4 0,-4 4,0 4,0 0,-4 0,-4 -4,0 -4,0 0,-4 0,-4 -4,0 -4,0 0,-4 0,-4 -4,0 -4,0 0,-16 0,-16 4,0 4,0 0,-4 0,-4 4,0 4,0 0,-4 0,-4 8,0 8,0 0,-4 0,-4 20,0 20,0 0,4 0,4 4,0 4,0 0,4 0,4 4,0 4,0 0,4 0,4 4,0 4,0 0,16 0,16 -4,0 -4,0 0,4 0,4 -4,0 -4,0 0,4 0,4 -4,0 -4,0 0,4 0,4 4,0 4,0 0,4 0,4 4,0 4,0 0,4 0,4 4,0 4,0 0,4 0,4 -4,0 -4,0 0,4 0,4 -8,0 -8,0 0,8 0,8 -4,0 -4,0 0,4 0,4 -16,0 -16,0 0,-4 z m -8,-32 0,-4 -8,0 -8,0 0,4 0,4 8,0 8,0 0,-4 z m 64,0 0,-4 -8,0 -8,0 0,4 0,4 8,0 8,0 0,-4 z m -16,-32 0,-4 4,0 4,0 0,-4 0,-4 4,0 4,0 0,-8 0,-8 -4,0 -4,0 0,-8 0,-8 -8,0 -8,0 0,4 0,4 -4,0 -4,0 0,-4 0,-4 -4,0 -4,0 0,-4 0,-4 -4,0 -4,0 0,4 0,4 -12,0 -12,0 0,8 0,8 -4,0 -4,0 0,8 0,8 4,0 4,0 0,4 0,4 4,0 4,0 0,4 0,4 24,0 24,0 0,-4 z m -40,-16 0,-4 4,0 4,0 0,4 0,4 -4,0 -4,0 0,-4 z m 24,0 0,-4 4,0 4,0 0,4 0,4 -4,0 -4,0 0,-4 z"
         id="path3939"
         style="fill:#b6504a" />
      <path
         d="m 254,337.79075 0,-4 -4,0 -4,0 0,-8 0,-8 -8,0 -8,0 0,-4 0,-4 -4,0 -4,0 0,-4 0,-4 4,0 4,0 0,-4 0,-4 4,0 4,0 0,-4 0,-4 4,0 4,0 0,-4 0,-4 -4,0 -4,0 0,-4 0,-4 -4,0 -4,0 0,-4 0,-4 -4,0 -4,0 0,-16 0,-16 4,0 4,0 0,-4 0,-4 4,0 4,0 0,-4 0,-4 8,0 8,0 0,-4 0,-4 20,0 20,0 0,4 0,4 4,0 4,0 0,4 0,4 4,0 4,0 0,4 0,4 4,0 4,0 0,16 0,16 -4,0 -4,0 0,4 0,4 -4,0 -4,0 0,4 0,4 -4,0 -4,0 0,4 0,4 4,0 4,0 0,4 0,4 4,0 4,0 0,4 0,4 4,0 4,0 0,4 0,4 -4,0 -4,0 0,4 0,4 -8,0 -8,0 0,8 0,8 -4,0 -4,0 0,4 0,4 -16,0 -16,0 0,-4 z m -8,-32 0,-4 -8,0 -8,0 0,4 0,4 8,0 8,0 0,-4 z m 64,0 0,-4 -8,0 -8,0 0,4 0,4 8,0 8,0 0,-4 z m -24,-16 0,-4 -16,0 -16,0 0,4 0,4 16,0 16,0 0,-4 z m 8,-16 0,-4 4,0 4,0 0,-4 0,-4 4,0 4,0 0,-8 0,-8 -4,0 -4,0 0,-8 0,-8 -8,0 -8,0 0,4 0,4 -4,0 -4,0 0,-4 0,-4 -4,0 -4,0 0,-4 0,-4 -4,0 -4,0 0,4 0,4 -12,0 -12,0 0,8 0,8 -4,0 -4,0 0,8 0,8 4,0 4,0 0,4 0,4 4,0 4,0 0,4 0,4 24,0 24,0 0,-4 z m -40,-16 0,-4 4,0 4,0 0,4 0,4 -4,0 -4,0 0,-4 z m 24,0 0,-4 4,0 4,0 0,4 0,4 -4,0 -4,0 0,-4 z"
         id="path3937"
         style="fill:#a46b39" />
      <path
         d="m 254,337.79075 0,-4 -4,0 -4,0 0,-8 0,-8 -8,0 -8,0 0,-4 0,-4 -4,0 -4,0 0,-4 0,-4 4,0 4,0 0,-4 0,-4 4,0 4,0 0,-4 0,-4 4,0 4,0 0,-4 0,-4 -4,0 -4,0 0,-4 0,-4 -4,0 -4,0 0,-4 0,-4 -4,0 -4,0 0,-16 0,-16 4,0 4,0 0,-4 0,-4 4,0 4,0 0,-4 0,-4 8,0 8,0 0,-4 0,-4 20,0 20,0 0,4 0,4 4,0 4,0 0,4 0,4 4,0 4,0 0,4 0,4 4,0 4,0 0,16 0,16 -4,0 -4,0 0,4 0,4 -4,0 -4,0 0,4 0,4 -4,0 -4,0 0,4 0,4 4,0 4,0 0,4 0,4 4,0 4,0 0,4 0,4 4,0 4,0 0,4 0,4 -4,0 -4,0 0,4 0,4 -8,0 -8,0 0,8 0,8 -4,0 -4,0 0,4 0,4 -16,0 -16,0 0,-4 z m -8,-32 0,-4 -8,0 -8,0 0,4 0,4 8,0 8,0 0,-4 z m 64,0 0,-4 -8,0 -8,0 0,4 0,4 8,0 8,0 0,-4 z m -24,-16 0,-4 -16,0 -16,0 0,4 0,4 16,0 16,0 0,-4 z m 8,-16 0,-4 4,0 4,0 0,-4 0,-4 4,0 4,0 0,-16 0,-16 -8,0 -8,0 0,-4 0,-4 -4,0 -4,0 0,-4 0,-4 -12,0 -12,0 0,4 0,4 -8,0 -8,0 0,4 0,4 -4,0 -4,0 0,4 0,4 -4,0 -4,0 0,12 0,12 4,0 4,0 0,4 0,4 4,0 4,0 0,4 0,4 24,0 24,0 0,-4 z m -40,-16 0,-4 4,0 4,0 0,4 0,4 -4,0 -4,0 0,-4 z m 24,0 0,-4 4,0 4,0 0,4 0,4 -4,0 -4,0 0,-4 z"
         id="path3935"
         style="fill:#98322c" />
      <path
         d="m 254,337.79075 0,-4 -4,0 -4,0 0,-8 0,-8 -8,0 -8,0 0,-4 0,-4 -4,0 -4,0 0,-4 0,-4 4,0 4,0 0,-4 0,-4 4,0 4,0 0,-4 0,-4 4,0 4,0 0,-4 0,-4 -4,0 -4,0 0,-4 0,-4 -4,0 -4,0 0,-4 0,-4 -4,0 -4,0 0,-16 0,-16 4,0 4,0 0,-4 0,-4 4,0 4,0 0,-4 0,-4 8,0 8,0 0,-4 0,-4 20,0 20,0 0,4 0,4 4,0 4,0 0,4 0,4 4,0 4,0 0,4 0,4 4,0 4,0 0,16 0,16 -4,0 -4,0 0,4 0,4 -4,0 -4,0 0,4 0,4 -4,0 -4,0 0,4 0,4 4,0 4,0 0,4 0,4 4,0 4,0 0,4 0,4 4,0 4,0 0,4 0,4 -4,0 -4,0 0,4 0,4 -8,0 -8,0 0,8 0,8 -4,0 -4,0 0,4 0,4 -16,0 -16,0 0,-4 z m -8,-32 0,-4 8,0 8,0 0,4 0,4 8,0 8,0 0,-4 0,-4 8,0 8,0 0,4 0,4 8,0 8,0 0,-4 0,-4 -8,0 -8,0 0,-4 0,-4 -4,0 -4,0 0,-4 0,-4 -16,0 -16,0 0,4 0,4 -4,0 -4,0 0,4 0,4 -8,0 -8,0 0,4 0,4 8,0 8,0 0,-4 z m 48,-32 0,-4 4,0 4,0 0,-4 0,-4 4,0 4,0 0,-16 0,-16 -8,0 -8,0 0,-4 0,-4 -4,0 -4,0 0,-4 0,-4 -12,0 -12,0 0,4 0,4 -8,0 -8,0 0,4 0,4 -4,0 -4,0 0,4 0,4 -4,0 -4,0 0,12 0,12 4,0 4,0 0,4 0,4 4,0 4,0 0,4 0,4 24,0 24,0 0,-4 z m -40,-16 0,-4 4,0 4,0 0,4 0,4 -4,0 -4,0 0,-4 z m 24,0 0,-4 4,0 4,0 0,4 0,4 -4,0 -4,0 0,-4 z"
         id="path3933"
         style="fill:#8d0f27" />
      <path
         d="m 254,337.79075 0,-4 -4,0 -4,0 0,-8 0,-8 -8,0 -8,0 0,-4 0,-4 -4,0 -4,0 0,-4 0,-4 4,0 4,0 0,-4 0,-4 4,0 4,0 0,-4 0,-4 4,0 4,0 0,-4 0,-4 -4,0 -4,0 0,-4 0,-4 -4,0 -4,0 0,-4 0,-4 -4,0 -4,0 0,-16 0,-16 4,0 4,0 0,-4 0,-4 4,0 4,0 0,-4 0,-4 8,0 8,0 0,-4 0,-4 20,0 20,0 0,4 0,4 4,0 4,0 0,4 0,4 4,0 4,0 0,4 0,4 4,0 4,0 0,16 0,16 -4,0 -4,0 0,4 0,4 -4,0 -4,0 0,4 0,4 -4,0 -4,0 0,4 0,4 4,0 4,0 0,4 0,4 4,0 4,0 0,4 0,4 4,0 4,0 0,4 0,4 -4,0 -4,0 0,4 0,4 -8,0 -8,0 0,8 0,8 -4,0 -4,0 0,4 0,4 -16,0 -16,0 0,-4 z m -8,-32 0,-4 8,0 8,0 0,4 0,4 8,0 8,0 0,-4 0,-4 8,0 8,0 0,4 0,4 8,0 8,0 0,-4 0,-4 -8,0 -8,0 0,-4 0,-4 -4,0 -4,0 0,-4 0,-4 -16,0 -16,0 0,4 0,4 -4,0 -4,0 0,4 0,4 -8,0 -8,0 0,4 0,4 8,0 8,0 0,-4 z m 48,-32 0,-4 4,0 4,0 0,-4 0,-4 4,0 4,0 0,-16 0,-16 -8,0 -8,0 0,-4 0,-4 -4,0 -4,0 0,-4 0,-4 -12,0 -12,0 0,4 0,4 -8,0 -8,0 0,4 0,4 -4,0 -4,0 0,4 0,4 -4,0 -4,0 0,12 0,12 4,0 4,0 0,4 0,4 4,0 4,0 0,4 0,4 24,0 24,0 0,-4 z"
         id="path3931"
         style="fill:#3b3b3b" />
      <path
         d="m 254,337.79075 0,-4 -4,0 -4,0 0,-8 0,-8 -8,0 -8,0 0,-4 0,-4 -4,0 -4,0 0,-4 0,-4 4,0 4,0 0,-4 0,-4 4,0 4,0 0,-4 0,-4 4,0 4,0 0,-4 0,-4 -4,0 -4,0 0,-4 0,-4 -4,0 -4,0 0,-4 0,-4 -4,0 -4,0 0,-16 0,-16 4,0 4,0 0,-4 0,-4 4,0 4,0 0,-4 0,-4 8,0 8,0 0,-4 0,-4 20,0 20,0 0,4 0,4 4,0 4,0 0,4 0,4 4,0 4,0 0,4 0,4 4,0 4,0 0,16 0,16 -4,0 -4,0 0,4 0,4 -4,0 -4,0 0,4 0,4 -4,0 -4,0 0,4 0,4 4,0 4,0 0,4 0,4 4,0 4,0 0,4 0,4 4,0 4,0 0,4 0,4 -4,0 -4,0 0,4 0,4 -8,0 -8,0 0,8 0,8 -4,0 -4,0 0,4 0,4 -16,0 -16,0 0,-4 z m 32,-16 0,-4 -4,0 -4,0 0,-8 0,-8 8,0 8,0 0,4 0,4 8,0 8,0 0,-4 0,-4 -8,0 -8,0 0,-4 0,-4 -4,0 -4,0 0,-4 0,-4 -16,0 -16,0 0,4 0,4 -4,0 -4,0 0,4 0,4 -8,0 -8,0 0,4 0,4 8,0 8,0 0,-4 0,-4 8,0 8,0 0,8 0,8 -4,0 -4,0 0,4 0,4 16,0 16,0 0,-4 z m 8,-48 0,-4 4,0 4,0 0,-4 0,-4 4,0 4,0 0,-16 0,-16 -8,0 -8,0 0,-4 0,-4 -4,0 -4,0 0,-4 0,-4 -12,0 -12,0 0,4 0,4 -8,0 -8,0 0,4 0,4 -4,0 -4,0 0,4 0,4 -4,0 -4,0 0,12 0,12 4,0 4,0 0,4 0,4 4,0 4,0 0,4 0,4 24,0 24,0 0,-4 z"
         id="path3929"
         style="fill:#55371d" />
      <path
         d="m 254,337.79075 0,-4 -4,0 -4,0 0,-8 0,-8 -8,0 -8,0 0,-4 0,-4 -4,0 -4,0 0,-4 0,-4 4,0 4,0 0,-4 0,-4 4,0 4,0 0,-4 0,-4 4,0 4,0 0,-4 0,-4 -4,0 -4,0 0,-4 0,-4 -4,0 -4,0 0,-4 0,-4 -4,0 -4,0 0,-16 0,-16 4,0 4,0 0,-4 0,-4 4,0 4,0 0,-4 0,-4 8,0 8,0 0,-4 0,-4 20,0 20,0 0,4 0,4 4,0 4,0 0,4 0,4 4,0 4,0 0,4 0,4 4,0 4,0 0,16 0,16 -4,0 -4,0 0,4 0,4 -4,0 -4,0 0,4 0,4 -4,0 -4,0 0,4 0,4 4,0 4,0 0,4 0,4 4,0 4,0 0,4 0,4 4,0 4,0 0,4 0,4 -4,0 -4,0 0,4 0,4 -8,0 -8,0 0,8 0,8 -4,0 -4,0 0,4 0,4 -16,0 -16,0 0,-4 z m 32,-16 0,-4 -4,0 -4,0 0,-8 0,-8 8,0 8,0 0,4 0,4 8,0 8,0 0,-4 0,-4 -8,0 -8,0 0,-4 0,-4 -4,0 -4,0 0,-4 0,-4 -16,0 -16,0 0,4 0,4 -4,0 -4,0 0,4 0,4 -8,0 -8,0 0,4 0,4 8,0 8,0 0,-4 0,-4 8,0 8,0 0,8 0,8 -4,0 -4,0 0,4 0,4 16,0 16,0 0,-4 z m 8,-48 0,-4 4,0 4,0 0,-4 0,-4 4,0 4,0 0,-16 0,-16 -4,0 -4,0 0,-4 0,-4 -4,0 -4,0 0,-4 0,-4 -20,0 -20,0 0,4 0,4 -8,0 -8,0 0,4 0,4 -4,0 -4,0 0,16 0,16 4,0 4,0 0,4 0,4 4,0 4,0 0,4 0,4 24,0 24,0 0,-4 z"
         id="path3927"
         style="fill:#7a140e" />
      <path
         d="m 254,337.79075 0,-4 -4,0 -4,0 0,-8 0,-8 -8,0 -8,0 0,-4 0,-4 -4,0 -4,0 0,-4 0,-4 4,0 4,0 0,-4 0,-4 4,0 4,0 0,-4 0,-4 4,0 4,0 0,-4 0,-4 -4,0 -4,0 0,-4 0,-4 -4,0 -4,0 0,-4 0,-4 -4,0 -4,0 0,-16 0,-16 4,0 4,0 0,-4 0,-4 4,0 4,0 0,-4 0,-4 8,0 8,0 0,-4 0,-4 20,0 20,0 0,4 0,4 4,0 4,0 0,4 0,4 4,0 4,0 0,4 0,4 4,0 4,0 0,16 0,16 -4,0 -4,0 0,4 0,4 -4,0 -4,0 0,4 0,4 -4,0 -4,0 0,4 0,4 4,0 4,0 0,4 0,4 4,0 4,0 0,4 0,4 4,0 4,0 0,4 0,4 -4,0 -4,0 0,4 0,4 -8,0 -8,0 0,8 0,8 -4,0 -4,0 0,4 0,4 -16,0 -16,0 0,-4 z m 32,-16 0,-4 -4,0 -4,0 0,-4 0,-4 4,0 4,0 0,-4 0,-4 4,0 4,0 0,4 0,4 8,0 8,0 0,-4 0,-4 -4,0 -4,0 0,-4 0,-4 -8,0 -8,0 0,-4 0,-4 -16,0 -16,0 0,4 0,4 -8,0 -8,0 0,4 0,4 -4,0 -4,0 0,4 0,4 8,0 8,0 0,-4 0,-4 4,0 4,0 0,4 0,4 4,0 4,0 0,4 0,4 -4,0 -4,0 0,4 0,4 16,0 16,0 0,-4 z m 8,-48 0,-4 4,0 4,0 0,-4 0,-4 4,0 4,0 0,-16 0,-16 -4,0 -4,0 0,-4 0,-4 -4,0 -4,0 0,-4 0,-4 -20,0 -20,0 0,4 0,4 -8,0 -8,0 0,4 0,4 -4,0 -4,0 0,16 0,16 4,0 4,0 0,4 0,4 4,0 4,0 0,4 0,4 24,0 24,0 0,-4 z"
         id="path3925"
         style="fill:#5c320e" />
      <path
         d="m 254,337.79075 0,-4 -4,0 -4,0 0,-8 0,-8 -8,0 -8,0 0,-4 0,-4 -4,0 -4,0 0,-4 0,-4 4,0 4,0 0,-4 0,-4 4,0 4,0 0,-4 0,-4 4,0 4,0 0,-4 0,-4 -4,0 -4,0 0,-4 0,-4 -4,0 -4,0 0,-4 0,-4 -4,0 -4,0 0,-16 0,-16 4,0 4,0 0,-4 0,-4 4,0 4,0 0,-4 0,-4 8,0 8,0 0,-4 0,-4 20,0 20,0 0,4 0,4 4,0 4,0 0,4 0,4 4,0 4,0 0,4 0,4 4,0 4,0 0,16 0,16 -4,0 -4,0 0,4 0,4 -4,0 -4,0 0,4 0,4 -4,0 -4,0 0,4 0,4 4,0 4,0 0,4 0,4 4,0 4,0 0,4 0,4 4,0 4,0 0,4 0,4 -4,0 -4,0 0,4 0,4 -8,0 -8,0 0,8 0,8 -4,0 -4,0 0,4 0,4 -16,0 -16,0 0,-4 z m 8,-8 0,-4 8,0 8,0 0,4 0,4 4,0 4,0 0,-8 0,-8 -4,0 -4,0 0,-4 0,-4 4,0 4,0 0,-4 0,-4 4,0 4,0 0,4 0,4 8,0 8,0 0,-4 0,-4 -4,0 -4,0 0,-4 0,-4 -8,0 -8,0 0,-4 0,-4 -16,0 -16,0 0,4 0,4 -8,0 -8,0 0,4 0,4 -4,0 -4,0 0,4 0,4 8,0 8,0 0,-4 0,-4 4,0 4,0 0,4 0,4 4,0 4,0 0,4 0,4 -4,0 -4,0 0,8 0,8 4,0 4,0 0,-4 z m 32,-56 0,-4 4,0 4,0 0,-4 0,-4 4,0 4,0 0,-16 0,-16 -4,0 -4,0 0,-4 0,-4 -4,0 -4,0 0,-4 0,-4 -20,0 -20,0 0,4 0,4 -8,0 -8,0 0,4 0,4 -4,0 -4,0 0,16 0,16 4,0 4,0 0,4 0,4 4,0 4,0 0,4 0,4 24,0 24,0 0,-4 z"
         id="path3923"
         style="fill:#1d1d1d" />
      <path
         d="m 254,337.79075 0,-4 -4,0 -4,0 0,-8 0,-8 -8,0 -8,0 0,-4 0,-4 -4,0 -4,0 0,-4 0,-4 4,0 4,0 0,-4 0,-4 4,0 4,0 0,-4 0,-4 4,0 4,0 0,-4 0,-4 -4,0 -4,0 0,-4 0,-4 -4,0 -4,0 0,-4 0,-4 -4,0 -4,0 0,-16 0,-16 4,0 4,0 0,-4 0,-4 4,0 4,0 0,-4 0,-4 8,0 8,0 0,-4 0,-4 20,0 20,0 0,4 0,4 4,0 4,0 0,4 0,4 4,0 4,0 0,4 0,4 4,0 4,0 0,16 0,16 -4,0 -4,0 0,4 0,4 -4,0 -4,0 0,4 0,4 -4,0 -4,0 0,4 0,4 4,0 4,0 0,4 0,4 4,0 4,0 0,4 0,4 4,0 4,0 0,4 0,4 -4,0 -4,0 0,4 0,4 -8,0 -8,0 0,8 0,8 -4,0 -4,0 0,4 0,4 -16,0 -16,0 0,-4 z m 8,-8 0,-4 8,0 8,0 0,4 0,4 4,0 4,0 0,-16 0,-16 4,0 4,0 0,4 0,4 8,0 8,0 0,-4 0,-4 -4,0 -4,0 0,-4 0,-4 -8,0 -8,0 0,-4 0,-4 -16,0 -16,0 0,4 0,4 -8,0 -8,0 0,4 0,4 -4,0 -4,0 0,4 0,4 8,0 8,0 0,-4 0,-4 4,0 4,0 0,16 0,16 4,0 4,0 0,-4 z m 32,-56 0,-4 4,0 4,0 0,-4 0,-4 4,0 4,0 0,-16 0,-16 -4,0 -4,0 0,-4 0,-4 -4,0 -4,0 0,-4 0,-4 -20,0 -20,0 0,4 0,4 -8,0 -8,0 0,4 0,4 -4,0 -4,0 0,16 0,16 4,0 4,0 0,4 0,4 4,0 4,0 0,4 0,4 24,0 24,0 0,-4 z"
         id="path3921"
         style="fill:#3e1400" />
      <path
         d="m 254,337.79075 0,-4 -4,0 -4,0 0,-8 0,-8 -8,0 -8,0 0,-4 0,-4 -4,0 -4,0 0,-4 0,-4 4,0 4,0 0,-4 0,-4 4,0 4,0 0,-4 0,-4 4,0 4,0 0,-4 0,-4 -4,0 -4,0 0,-4 0,-4 -4,0 -4,0 0,-4 0,-4 -4,0 -4,0 0,-16 0,-16 4,0 4,0 0,-4 0,-4 4,0 4,0 0,-4 0,-4 8,0 8,0 0,-4 0,-4 20,0 20,0 0,4 0,4 4,0 4,0 0,4 0,4 4,0 4,0 0,4 0,4 4,0 4,0 0,16 0,16 -4,0 -4,0 0,4 0,4 -4,0 -4,0 0,4 0,4 -4,0 -4,0 0,4 0,4 4,0 4,0 0,4 0,4 4,0 4,0 0,4 0,4 4,0 4,0 0,4 0,4 -4,0 -4,0 0,4 0,4 -8,0 -8,0 0,8 0,8 -4,0 -4,0 0,4 0,4 -16,0 -16,0 0,-4 z m 32,-20 0,-16 4,0 4,0 0,4 0,4 8,0 8,0 0,-4 0,-4 -4,0 -4,0 0,-4 0,-4 -8,0 -8,0 0,-4 0,-4 -16,0 -16,0 0,4 0,4 -8,0 -8,0 0,4 0,4 -4,0 -4,0 0,4 0,4 8,0 8,0 0,-4 0,-4 4,0 4,0 0,16 0,16 16,0 16,0 0,-16 z m 8,-44 0,-4 4,0 4,0 0,-4 0,-4 4,0 4,0 0,-16 0,-16 -4,0 -4,0 0,-4 0,-4 -4,0 -4,0 0,-4 0,-4 -20,0 -20,0 0,4 0,4 -8,0 -8,0 0,4 0,4 -4,0 -4,0 0,16 0,16 4,0 4,0 0,4 0,4 4,0 4,0 0,4 0,4 24,0 24,0 0,-4 z"
         id="path3919"
         style="fill:#000000" />
    </g>
  </g>
</svg>
